<svg width="4106" height="1286" xmlns="http://www.w3.org/2000/svg" xmlns:xlink="http://www.w3.org/1999/xlink" xml:space="preserve" overflow="hidden"><defs><clipPath id="clip0"><rect x="163" y="599" width="4106" height="1286"/></clipPath></defs><g clip-path="url(#clip0)" transform="translate(-163 -599)"><path d="M1591.35 1150.58C1581.27 1150.58 1569.49 1158.37 1556.01 1173.96 1542.54 1189.55 1530.21 1208.52 1519.03 1230.88 1507.84 1253.23 1500.48 1270.61 1496.93 1283.02L1474.88 1334.82C1455.92 1376.75 1439.59 1416.77 1425.87 1454.86 1412.15 1492.95 1405.29 1524.53 1405.29 1549.58 1405.29 1572.68 1413.68 1584.23 1430.45 1584.23 1440.63 1584.23 1451.58 1582.27 1463.31 1578.36 1495.62 1566.74 1520.36 1554.45 1537.54 1541.48 1554.72 1528.52 1581.33 1506.49 1617.37 1475.39L1625.41 1458.74C1631.47 1448.83 1637.3 1438.41 1642.9 1427.5 1648.5 1416.58 1653.19 1405.1 1657 1393.06 1660.85 1383.81 1666.02 1374.66 1672.52 1365.63 1679.03 1356.59 1689.22 1346.49 1703.09 1335.32 1708.92 1324.77 1713.2 1319.58 1715.91 1319.74 1726.64 1287.95 1732.01 1260.46 1732.01 1237.27 1732.01 1212.77 1726.1 1193.14 1714.3 1178.38 1702.49 1163.63 1684.23 1156.25 1659.5 1156.25 1650.93 1156.25 1638.76 1157.83 1622.98 1160.99L1611.73 1160.99C1602.89 1154.05 1596.1 1150.58 1591.35 1150.58ZM3821.18 1123.78 3816.37 1125C3803.44 1130.63 3785.25 1144.72 3761.81 1167.27 3730.55 1197.33 3714.37 1212.72 3713.28 1213.46 3706.24 1222.83 3694.24 1251.26 3677.3 1298.76 3664.59 1334.39 3656.65 1361.04 3653.47 1378.73L3652.75 1385.43 3662.42 1383.09C3677.12 1376.42 3694.67 1359.74 3715.06 1333.07 3742.25 1297.5 3766.78 1256.78 3788.66 1210.9 3805.07 1176.49 3815.33 1151.18 3819.43 1134.98ZM711.66 1123.78 706.853 1125C693.922 1130.63 675.733 1144.72 652.291 1167.27 621.031 1197.33 604.855 1212.72 603.759 1213.46 596.72 1222.83 584.728 1251.26 567.784 1298.76 555.076 1334.39 547.133 1361.04 543.957 1378.73L543.231 1385.43 552.9 1383.09C567.609 1376.42 585.157 1359.74 605.547 1333.07 632.731 1297.5 657.266 1256.78 679.147 1210.9 695.556 1176.49 705.814 1151.18 709.916 1134.98ZM3804.83 829.927C3883.34 829.927 3922.59 894.409 3922.59 1023.37 3922.59 1036.93 3923.69 1051.75 3925.9 1067.84 3928.11 1083.94 3930.26 1096.98 3932.36 1106.98 3939.1 1141.89 3942.47 1167.65 3942.47 1184.27 3942.47 1210.05 3937.21 1236.97 3926.68 1265.02 3906.95 1317 3881.88 1359.37 3851.46 1392.15 3821.05 1424.92 3780.95 1450.41 3731.18 1468.61 3702.25 1479.28 3680.7 1489.94 3666.52 1500.57 3652.35 1511.19 3645.26 1525.64 3645.26 1543.91 3645.26 1552.52 3647.62 1563.89 3652.34 1578.01 3656.46 1589 3658.52 1601.92 3658.52 1616.78 3658.52 1621.99 3657.7 1635.17 3656.06 1656.31 3654.54 1665.99 3653.79 1676.79 3653.79 1688.7 3653.79 1706.61 3657.24 1720.75 3664.15 1731.11 3671.06 1741.48 3685.46 1749.19 3707.36 1754.24 3713.34 1755.72 3721.53 1756.47 3731.95 1756.47 3771.21 1756.47 3811.78 1742.81 3853.66 1715.48 3895.55 1688.16 3933.19 1657.16 3966.59 1622.49 3999.98 1587.82 4038.32 1545.41 4081.6 1495.24 4082.3 1494.53 4086.13 1488.82 4093.08 1478.11 4163.6 1376.6 4211.7 1325.85 4237.37 1325.85 4253.04 1325.85 4263.06 1334.56 4267.43 1351.99 4268.48 1356.23 4269 1361.84 4269 1368.82 4269 1393.58 4261.21 1422.88 4245.63 1456.7 4230.05 1490.52 4211.08 1522.61 4188.72 1552.98 4166.36 1583.34 4145.68 1605.21 4126.69 1618.57 4115.68 1626.28 4103.3 1636.69 4089.56 1649.8 4075.83 1662.9 4062.65 1675.77 4050.03 1688.39 4030.36 1708.05 4013.09 1724.61 3998.22 1738.07 3983.35 1751.52 3967.17 1763.63 3949.68 1774.39 3915.3 1795.54 3881.45 1811.41 3848.13 1821.98 3814.81 1832.55 3770.93 1843.99 3716.5 1856.3 3707.43 1858.39 3696.49 1859.44 3683.68 1859.44 3645.6 1859.44 3601.15 1850.32 3550.34 1832.08 3499.53 1813.84 3459.49 1794.41 3430.22 1773.78 3382.6 1740.06 3347.04 1705.39 3323.52 1669.79 3300.01 1634.19 3284.37 1589.24 3276.62 1534.97 3273.88 1507.63 3272.52 1486.63 3272.52 1471.98 3272.52 1409.45 3282.02 1343.73 3301.02 1274.8 3320.02 1205.88 3346.92 1141.02 3381.71 1080.23 3416.51 1019.43 3455.94 970.946 3499.99 934.778 3562.18 884.503 3655.34 850.272 3779.48 832.083 3785.87 830.644 3794.32 829.927 3804.83 829.927ZM2624.83 599C2648.5 599 2668.53 605.676 2684.9 619.029 2701.28 632.383 2709.47 650.752 2709.47 674.14 2709.47 687.935 2706 702.987 2699.06 719.297 2691.49 736.994 2687.7 752.226 2687.7 764.997 2687.7 777.575 2691.64 788.563 2699.51 797.959 2707.38 807.355 2721.01 819.253 2740.39 833.651L2779.12 864.857C2837.07 917.806 2888.39 973.42 2933.07 1031.7 2977.76 1089.98 3012.95 1149.5 3038.67 1210.26 3056.95 1252.15 3070.32 1288.06 3078.79 1318.01 3087.26 1347.95 3094.34 1382.07 3100.06 1420.36L3101.31 1430.82C3101.31 1450.02 3095.24 1474.23 3083.09 1503.45 3070.95 1532.66 3056.52 1563.51 3039.8 1595.99L3030.32 1611.78C2988.53 1696.49 2936.79 1763.38 2875.1 1812.47 2857.09 1828.56 2838.91 1840.66 2820.55 1848.77 2802.19 1856.89 2780.1 1862.65 2754.28 1866.07 2752.91 1866.41 2745.21 1868.42 2731.17 1872.09 2699.4 1880.7 2676.57 1885 2662.69 1885 2652.95 1885 2645.18 1883.55 2639.4 1880.64 2593.32 1859.59 2557.04 1837.52 2530.57 1814.44 2504.1 1791.36 2483.82 1758.01 2469.76 1714.39 2464.36 1693.99 2459.26 1667.17 2454.48 1633.92 2452.95 1615.16 2457.06 1597.61 2466.82 1581.28 2476.57 1564.94 2488.54 1556.78 2502.73 1556.78 2523.18 1556.78 2533.01 1570.11 2532.2 1596.77 2532.66 1605.5 2538.1 1620.44 2548.52 1641.59 2558.95 1662.74 2570.79 1680.87 2584.05 1695.97 2597.3 1711.06 2608.37 1718.61 2617.26 1718.61 2619.95 1718.61 2621.84 1718.22 2622.93 1717.44 2643.9 1704.97 2660.43 1686.48 2672.54 1661.98 2684.65 1637.49 2690.7 1612.64 2690.7 1587.44 2690.7 1583.37 2690.07 1576.27 2688.82 1566.16 2669.66 1471.66 2646.35 1377.16 2618.89 1282.65L2607.55 1234.03C2593.43 1170.85 2581.25 1122.48 2571.03 1088.9 2568.47 1080.5 2566.53 1073.09 2565.19 1066.65L2564.44 1061.02 2543.83 1163.7C2531.36 1207.02 2515.03 1250.81 2494.83 1295.06 2484.73 1317.18 2474.34 1338.45 2463.68 1358.85L2447.48 1387.76 2445.52 1393.02C2431.65 1423.21 2410.84 1457.84 2383.1 1496.93 2327.63 1575.11 2261.73 1646 2185.41 1709.59 2109.09 1773.19 2038.94 1807.37 1974.96 1812.12L1965.56 1812.12C1927.75 1811.43 1890.53 1802.01 1853.88 1783.86 1817.24 1765.72 1785.75 1741.34 1759.41 1710.72 1751.9 1700.7 1736.81 1668.92 1714.14 1615.39 1702.81 1588.62 1694.17 1567.72 1688.22 1552.69L1682.96 1538.81 1682.32 1542.8C1678.55 1552.59 1669.74 1566.31 1655.87 1583.95 1628.14 1619.23 1612.5 1639.03 1608.94 1643.35 1578.65 1666.59 1545.91 1684.91 1510.71 1698.32 1475.52 1711.73 1439.93 1718.43 1403.95 1718.43 1377.56 1718.43 1349.34 1713.43 1319.3 1703.42 1289.14 1693.74 1255.45 1674.42 1218.25 1645.45 1181.05 1616.49 1149.95 1582.41 1124.94 1543.23L1107.18 1505.64 1079.2 1552.98C1056.84 1583.34 1036.17 1605.21 1017.17 1618.57 1006.16 1626.28 993.786 1636.69 980.049 1649.8 966.313 1662.9 953.134 1675.77 940.515 1688.39 920.847 1708.05 903.575 1724.61 888.703 1738.07 873.831 1751.52 857.651 1763.63 840.163 1774.39 805.782 1795.54 771.933 1811.41 738.613 1821.98 705.294 1832.55 661.417 1843.99 606.985 1856.3 597.915 1858.39 586.975 1859.44 574.164 1859.44 536.083 1859.44 491.637 1850.32 440.826 1832.08 390.013 1813.84 349.972 1794.41 320.699 1773.78 273.085 1740.06 237.521 1705.39 214.006 1669.79 190.491 1634.19 174.855 1589.24 167.103 1534.97 164.368 1507.63 163 1486.63 163 1471.98 163 1409.45 172.501 1343.73 191.501 1274.8 210.502 1205.88 237.4 1141.02 272.198 1080.23 306.996 1019.43 346.421 970.946 390.477 934.778 452.661 884.503 545.823 850.272 669.96 832.083 676.356 830.644 684.807 829.927 695.317 829.927 773.822 829.927 813.073 894.409 813.073 1023.37 813.073 1036.93 814.178 1051.75 816.384 1067.84 818.591 1083.94 820.747 1096.98 822.847 1106.98 829.586 1141.89 832.953 1167.65 832.953 1184.27 832.953 1210.05 827.689 1236.97 817.162 1265.02 797.432 1317 772.361 1359.37 741.948 1392.15 711.533 1424.92 671.439 1450.41 621.662 1468.61 592.732 1479.28 571.18 1489.94 557.007 1500.57 542.834 1511.19 535.747 1525.64 535.747 1543.91 535.747 1552.52 538.105 1563.89 542.82 1578.01 546.943 1589 549.005 1601.92 549.005 1616.78 549.005 1621.99 548.185 1635.17 546.546 1656.31 545.029 1665.99 544.269 1676.79 544.269 1688.7 544.269 1706.61 547.723 1720.75 554.631 1731.11 561.539 1741.48 575.944 1749.19 597.847 1754.24 603.82 1755.72 612.013 1756.47 622.432 1756.47 661.689 1756.47 702.263 1742.81 744.148 1715.48 786.036 1688.16 823.677 1657.16 857.073 1622.49 890.468 1587.82 928.805 1545.41 972.085 1495.24 972.788 1494.53 976.615 1488.82 983.563 1478.11 1027.64 1414.67 1062.96 1371.05 1089.51 1347.26L1104.26 1335.47 1111.18 1308.39C1117.44 1285.64 1123.72 1264.57 1130.03 1245.15 1142.64 1206.33 1160.5 1167.07 1183.59 1127.39 1206.68 1087.71 1234.66 1052.93 1267.52 1023.07 1296.19 998.285 1326.93 979.495 1359.73 966.7 1392.53 953.907 1429.3 941.817 1470.03 930.436L1516.12 918.898C1528.78 913.215 1542.82 910.376 1558.23 910.376 1578.36 910.376 1596.13 914.229 1611.55 921.936 1626.96 929.644 1647.82 943.858 1674.1 964.582 1695.02 978.81 1715.09 990.735 1734.33 1000.36 1742.8 1004.2 1757.4 1015.01 1778.15 1032.78 1778.62 1033.27 1782.63 1036.68 1790.18 1043.01 1797.72 1049.35 1803.45 1053.59 1807.36 1055.74 1811.26 1057.89 1813.72 1058.97 1814.72 1058.97 1814.8 1058.97 1815.46 1057.46 1816.7 1054.46 1818.92 1048.23 1820.03 1042.29 1820.03 1036.63 1820.03 1033.49 1819.4 1029.08 1818.14 1023.39 1816.88 1017.7 1816.25 1011.7 1816.25 1005.39 1816.25 991.589 1821.47 979.066 1831.92 967.824 1839.35 956.653 1853.18 951.067 1873.42 951.067 1886.54 951.067 1902.66 953.645 1921.79 958.797 1940.91 963.951 1953.53 969.066 1959.65 974.143L1985.83 992.968C2022.28 1017.9 2052.94 1040.39 2077.83 1060.42 2102.72 1080.46 2113.51 1097.4 2110.2 1111.26 2109.09 1111.46 2110.08 1115.68 2113.15 1123.94 2116.23 1132.18 2120.94 1144.49 2127.27 1160.85 2138.37 1185.14 2144.3 1202.56 2145.06 1213.11 2145.82 1230.01 2144.17 1252.72 2140.09 1281.24 2136.72 1301.47 2135.04 1316.78 2135.04 1327.18 2135.04 1333.37 2135.36 1338.37 2135.99 1342.19 2135.99 1348.5 2133.46 1371.9 2128.4 1412.39 2119.89 1477.37 2114.57 1528.04 2112.44 1564.39L2111.55 1590.79 2118.66 1585.24C2129.58 1578.65 2143.69 1571.42 2161 1563.55L2199.48 1547.6 2270.57 1468.95C2275.6 1460.19 2284.1 1443.88 2296.04 1420 2317.99 1375.46 2339.15 1337.44 2359.52 1305.93 2364.61 1298.05 2369.74 1291.22 2374.91 1285.44L2379.99 1280.82 2382.14 1275.85C2399.33 1232.35 2415.82 1186.91 2431.61 1139.53 2463.2 1044.77 2484.89 972.987 2496.68 924.191 2494.11 912.166 2487.19 892.634 2475.93 865.597 2465.51 838.829 2457.69 816.948 2452.46 799.949 2447.23 782.953 2444.61 765.626 2444.61 747.968 2444.61 721.906 2455.92 691.495 2478.52 656.734 2485.04 645.011 2492.38 636.195 2500.56 630.287 2508.73 624.381 2518.99 621.02 2531.31 620.206 2545.23 619.039 2555.36 617.119 2561.71 614.443 2584.87 604.149 2605.91 599 2624.83 599Z" fill="#FFFFFF" fill-rule="evenodd"/></g></svg>